<svg xmlns="http://www.w3.org/2000/svg" version="1.1" xmlns:xlink="http://www.w3.org/1999/xlink" width="1000" height="1000"><g clip-path="url(#SvgjsClipPath1777)"><rect width="1000" height="1000" fill="#1d293d"></rect><g transform="matrix(0.3684210526315789,0,0,0.3684210526315789,153.86842105263167,150)"><svg xmlns="http://www.w3.org/2000/svg" version="1.1" xmlns:xlink="http://www.w3.org/1999/xlink" width="1879" height="1900"><svg width="1879" height="1900" viewBox="0 0 1879 1900" fill="none" xmlns="http://www.w3.org/2000/svg">
<path fill-rule="evenodd" clip-rule="evenodd" d="M912.75 1687.7C912.75 1687.7 927.43 1798.77 927.43 1825.88C927.43 1852.99 963.63 1859.55 965.98 1827.46C968.33 1795.38 983.35 1689.29 983.35 1689.29L1556.97 782.88L948.59 1614.82L78.84 380.67C78.84 380.67 414.09 971.35 912.75 1687.7Z" fill="white"></path>
<path d="M936.68 250.62C615.93 234.77 51.31 259.93 51.31 340.65C51.31 355.29 81.47 371.46 135.53 385.15C462.4 467.85 1447.64 468.21 1751.42 387.66C1836.2 365.18 1864.74 336.14 1749.61 302.43C1719.54 293.62 1676.75 291.33 1625.73 286.55C1734.15 309.75 1800.32 327.84 1788.31 340.65C1788.31 348.38 1697.09 370.17 1549.55 380.87C1157.78 409.31 715.58 409.31 323.81 380.87C319.97 380.59 36.24 359.5 106.8 326.58C202.45 281.95 664.76 255.85 936.68 250.61" fill="white"></path>
<path fill-rule="evenodd" clip-rule="evenodd" d="M698.67 537.09C418.6 430.87 269.06 512.44 243.55 528.63L554.61 967.04L949.65 1523.81L1344.69 967.04L1691.23 478.64C1588.25 623.79 1407.91 665.54 1215.12 655.76L1122.53 806.4C1139.71 817.7 1155.17 832.25 1167.93 849.92C1224.42 927.98 1206.92 1037.04 1128.88 1093.51C1050.77 1149.99 941.73 1132.49 885.26 1054.43C828.79 976.37 846.3 867.3 924.34 810.83C975.79 773.61 1040.7 768.53 1095.16 791.73L1173.82 652.91C1007.72 638.51 835.83 589.12 698.68 537.11" fill="#FB923C"></path>
<path d="M941.79 1108.19L936.99 1117.19C932.7 1122.08 900.24 1184.75 892.24 1180.17C884.92 1176 916.95 1106.02 919.3 1100.98L921.68 1096.4C928.13 1100.81 934.85 1104.73 941.78 1108.18M1521.5 21.83L1086.78 836.68C1082.15 844.17 1058.33 835.3 1062.13 825.16L1488.6 4.58001C1498.41 -8.64999 1526.51 9.82001 1521.51 21.84L1521.5 21.83Z" fill="white"></path>
<path fill-rule="evenodd" clip-rule="evenodd" d="M1041.76 1097.39C988.22 1106.51 931.66 1085.55 897.67 1038.56C850.03 972.71 864.79 880.72 930.65 833.07C944.11 823.32 958.68 816.21 973.72 811.57C965.54 815.47 957.57 820.15 949.96 825.65C882.79 874.26 867.73 968.11 916.33 1035.29C946.47 1076.92 993.98 1098.54 1041.75 1097.38" fill="white"></path>
</svg></svg></g></g><defs><clipPath id="SvgjsClipPath1777"><rect width="1000" height="1000" x="0" y="0" rx="300" ry="300"></rect></clipPath></defs></svg>